<?xml version="1.0" encoding="UTF-8" standalone="no"?>
<svg
   width="76.036"
   height="76.036"
   fill="none"
   version="1.1"
   id="svg1"
   sodipodi:docname="favicon.svg"
   inkscape:version="1.4.3 (0d15f75042, 2025-12-25)"
   xmlns:inkscape="http://www.inkscape.org/namespaces/inkscape"
   xmlns:sodipodi="http://sodipodi.sourceforge.net/DTD/sodipodi-0.dtd"
   xmlns="http://www.w3.org/2000/svg"
   xmlns:svg="http://www.w3.org/2000/svg">
  <defs
     id="defs1" />
  <sodipodi:namedview
     id="namedview1"
     pagecolor="#ffffff"
     bordercolor="#000000"
     borderopacity="0.25"
     inkscape:showpageshadow="2"
     inkscape:pageopacity="0.0"
     inkscape:pagecheckerboard="0"
     inkscape:deskcolor="#d1d1d1"
     inkscape:zoom="12.046925"
     inkscape:cx="37.976497"
     inkscape:cy="38.018002"
     inkscape:window-width="1920"
     inkscape:window-height="1163"
     inkscape:window-x="0"
     inkscape:window-y="0"
     inkscape:window-maximized="1"
     inkscape:current-layer="svg1" />
  <circle
     cx="38.515003"
     cy="38.515003"
     r="36"
     stroke="#fff"
     stroke-width="5.03"
     style="fill:#e20000;fill-opacity:1;stroke:none;stroke-width:0;stroke-dasharray:none"
     id="circle1" />
  <path
     fill="#ffffff"
     d="m 40.357804,54.636103 v -32.84636 h 17.985147 c 6.056732,0 8.759435,4.054054 8.759435,8.805698 0,3.726564 -1.863891,7.361821 -5.871682,8.33942 h 1.631361 c 2.003896,0 2.32895,0.932555 2.748965,2.935233 L 68.5,54.683583 H 62.535793 L 59.460555,41.730089 H 46.090699 V 54.636103 Z M 55.826516,36.512168 c 3.075237,0 5.636718,-1.770148 5.636718,-5.311663 0,-3.494034 -2.934016,-4.425371 -5.682981,-4.425371 h -9.644509 v 9.737034 z M 36.643414,54.51436 V 21.668 H 18.657049 c -6.056732,0 -8.759435,4.054054 -8.759435,8.805698 0,3.726564 1.862673,7.360603 5.870465,8.33942 h -1.631361 c -2.002679,0 -2.328951,0.931337 -2.747748,2.935233 L 8.5,54.560622 h 5.96299 L 17.538227,41.608346 H 30.910519 V 54.51436 Z M 21.172267,36.390425 c -3.07402,0 -5.636718,-1.770148 -5.636718,-5.311663 0,-3.494034 2.934015,-4.426589 5.684198,-4.426589 h 9.644509 v 9.738252 z"
     id="path1"
     style="stroke-width:1.21743" />
</svg>
