<svg xmlns="http://www.w3.org/2000/svg" width="76.036" height="76.036" fill="none"><circle cx="38.018" cy="38.018" r="35.503" stroke="#fff" stroke-width="5.03" style="fill:#e20000;fill-opacity:1"/><path fill="#fff" d="M39.561 49.848v-26.98h14.773c4.975 0 7.195 3.33 7.195 7.233 0 3.061-1.531 6.047-4.823 6.85h1.34c1.646 0 1.913.766 2.258 2.411l2.373 10.525h-4.899l-2.526-10.64H44.27v10.601zm12.706-14.887c2.526 0 4.63-1.454 4.63-4.363 0-2.87-2.41-3.635-4.668-3.635h-7.922v7.998zM36.51 49.748v-26.98H21.736c-4.975 0-7.195 3.33-7.195 7.233 0 3.061 1.53 6.046 4.822 6.85h-1.34c-1.645 0-1.913.765-2.257 2.411l-2.373 10.524h4.898l2.526-10.639h10.984v10.601zM23.802 34.861c-2.525 0-4.63-1.454-4.63-4.363 0-2.87 2.41-3.636 4.669-3.636h7.922v7.999z"/></svg>